<mxfile host="65bd71144e">
    <diagram id="-tx_BKq83uSuEXTztDjI" name="Página-1">
        <mxGraphModel dx="2337" dy="1007" grid="1" gridSize="10" guides="1" tooltips="1" connect="1" arrows="1" fold="1" page="1" pageScale="1" pageWidth="827" pageHeight="1169" math="0" shadow="0">
            <root>
                <mxCell id="0"/>
                <mxCell id="1" parent="0"/>
                <mxCell id="3" value="Server Host" style="swimlane;whiteSpace=wrap;html=1;" vertex="1" parent="1">
                    <mxGeometry x="120" y="40" width="350" height="260" as="geometry"/>
                </mxCell>
                <mxCell id="23" value="Windows" style="swimlane;whiteSpace=wrap;html=1;" vertex="1" parent="3">
                    <mxGeometry x="10" y="40" width="160" height="200" as="geometry"/>
                </mxCell>
                <mxCell id="21" value="Usuários / grupos" style="rounded=0;whiteSpace=wrap;html=1;" vertex="1" parent="23">
                    <mxGeometry x="20" y="40" width="120" height="60" as="geometry"/>
                </mxCell>
                <mxCell id="22" value="Nível de acesso" style="rounded=0;whiteSpace=wrap;html=1;" vertex="1" parent="23">
                    <mxGeometry x="20" y="120" width="120" height="60" as="geometry"/>
                </mxCell>
                <mxCell id="24" value="Linux" style="swimlane;whiteSpace=wrap;html=1;" vertex="1" parent="3">
                    <mxGeometry x="180" y="40" width="160" height="200" as="geometry"/>
                </mxCell>
                <mxCell id="25" value="Usuários / grupos" style="rounded=0;whiteSpace=wrap;html=1;" vertex="1" parent="24">
                    <mxGeometry x="20" y="40" width="120" height="60" as="geometry"/>
                </mxCell>
                <mxCell id="26" value="Nível de acesso" style="rounded=0;whiteSpace=wrap;html=1;" vertex="1" parent="24">
                    <mxGeometry x="20" y="120" width="120" height="60" as="geometry"/>
                </mxCell>
                <mxCell id="60" style="edgeStyle=none;html=1;entryX=0;entryY=1;entryDx=0;entryDy=0;startArrow=oval;startFill=1;endArrow=block;endFill=1;exitX=0.5;exitY=0;exitDx=0;exitDy=0;" edge="1" parent="1" source="7" target="3">
                    <mxGeometry relative="1" as="geometry"/>
                </mxCell>
                <mxCell id="7" value="SQL Server" style="swimlane;whiteSpace=wrap;html=1;" vertex="1" parent="1">
                    <mxGeometry x="-530" y="360" width="400" height="580" as="geometry"/>
                </mxCell>
                <mxCell id="8" value="Instância" style="rounded=0;whiteSpace=wrap;html=1;" vertex="1" parent="7">
                    <mxGeometry x="235" y="60" width="120" height="60" as="geometry"/>
                </mxCell>
                <mxCell id="9" value="Base de dados" style="rounded=0;whiteSpace=wrap;html=1;" vertex="1" parent="7">
                    <mxGeometry x="235" y="130" width="120" height="60" as="geometry"/>
                </mxCell>
                <mxCell id="10" value="Tabelas" style="rounded=0;whiteSpace=wrap;html=1;" vertex="1" parent="7">
                    <mxGeometry x="235" y="200" width="120" height="60" as="geometry"/>
                </mxCell>
                <mxCell id="11" value="Colunas" style="rounded=0;whiteSpace=wrap;html=1;" vertex="1" parent="7">
                    <mxGeometry x="235" y="270" width="120" height="60" as="geometry"/>
                </mxCell>
                <mxCell id="12" value="Index" style="rounded=0;whiteSpace=wrap;html=1;" vertex="1" parent="7">
                    <mxGeometry x="235" y="340" width="120" height="60" as="geometry"/>
                </mxCell>
                <mxCell id="13" value="Processures" style="rounded=0;whiteSpace=wrap;html=1;" vertex="1" parent="7">
                    <mxGeometry x="235" y="410" width="120" height="60" as="geometry"/>
                </mxCell>
                <mxCell id="14" value="Function" style="rounded=0;whiteSpace=wrap;html=1;" vertex="1" parent="7">
                    <mxGeometry x="235" y="480" width="120" height="60" as="geometry"/>
                </mxCell>
                <mxCell id="16" value="Usuário / Role" style="rounded=0;whiteSpace=wrap;html=1;" vertex="1" parent="7">
                    <mxGeometry x="15" y="275" width="120" height="60" as="geometry"/>
                </mxCell>
                <mxCell id="19" value="Nível de acesso" style="swimlane;horizontal=0;whiteSpace=wrap;html=1;" vertex="1" parent="7">
                    <mxGeometry x="185" y="40" width="200" height="520" as="geometry"/>
                </mxCell>
                <mxCell id="20" style="edgeStyle=none;html=1;startArrow=block;startFill=1;endArrow=block;endFill=1;entryX=-0.02;entryY=0.515;entryDx=0;entryDy=0;entryPerimeter=0;" edge="1" parent="7" source="16" target="19">
                    <mxGeometry relative="1" as="geometry">
                        <mxPoint x="145" y="410" as="targetPoint"/>
                    </mxGeometry>
                </mxCell>
                <mxCell id="61" style="edgeStyle=none;html=1;entryX=0.5;entryY=1;entryDx=0;entryDy=0;startArrow=oval;startFill=1;endArrow=block;endFill=1;exitX=0.5;exitY=0;exitDx=0;exitDy=0;" edge="1" parent="1" source="27" target="3">
                    <mxGeometry relative="1" as="geometry"/>
                </mxCell>
                <mxCell id="27" value="Oracle" style="swimlane;whiteSpace=wrap;html=1;" vertex="1" parent="1">
                    <mxGeometry x="-100" y="360" width="400" height="580" as="geometry"/>
                </mxCell>
                <mxCell id="28" value="Instância" style="rounded=0;whiteSpace=wrap;html=1;" vertex="1" parent="27">
                    <mxGeometry x="235" y="60" width="120" height="60" as="geometry"/>
                </mxCell>
                <mxCell id="29" value="Base de dados" style="rounded=0;whiteSpace=wrap;html=1;" vertex="1" parent="27">
                    <mxGeometry x="235" y="130" width="120" height="60" as="geometry"/>
                </mxCell>
                <mxCell id="30" value="Tabelas" style="rounded=0;whiteSpace=wrap;html=1;" vertex="1" parent="27">
                    <mxGeometry x="235" y="200" width="120" height="60" as="geometry"/>
                </mxCell>
                <mxCell id="31" value="Colunas" style="rounded=0;whiteSpace=wrap;html=1;" vertex="1" parent="27">
                    <mxGeometry x="235" y="270" width="120" height="60" as="geometry"/>
                </mxCell>
                <mxCell id="32" value="Index" style="rounded=0;whiteSpace=wrap;html=1;" vertex="1" parent="27">
                    <mxGeometry x="235" y="340" width="120" height="60" as="geometry"/>
                </mxCell>
                <mxCell id="33" value="Processures" style="rounded=0;whiteSpace=wrap;html=1;" vertex="1" parent="27">
                    <mxGeometry x="235" y="410" width="120" height="60" as="geometry"/>
                </mxCell>
                <mxCell id="34" value="Function" style="rounded=0;whiteSpace=wrap;html=1;" vertex="1" parent="27">
                    <mxGeometry x="235" y="480" width="120" height="60" as="geometry"/>
                </mxCell>
                <mxCell id="35" value="Usuário / Role" style="rounded=0;whiteSpace=wrap;html=1;" vertex="1" parent="27">
                    <mxGeometry x="15" y="275" width="120" height="60" as="geometry"/>
                </mxCell>
                <mxCell id="36" value="Nível de acesso" style="swimlane;horizontal=0;whiteSpace=wrap;html=1;" vertex="1" parent="27">
                    <mxGeometry x="185" y="40" width="200" height="520" as="geometry"/>
                </mxCell>
                <mxCell id="37" style="edgeStyle=none;html=1;startArrow=block;startFill=1;endArrow=block;endFill=1;entryX=-0.02;entryY=0.515;entryDx=0;entryDy=0;entryPerimeter=0;" edge="1" parent="27" source="35" target="36">
                    <mxGeometry relative="1" as="geometry">
                        <mxPoint x="145" y="410" as="targetPoint"/>
                    </mxGeometry>
                </mxCell>
                <mxCell id="62" style="edgeStyle=none;html=1;startArrow=oval;startFill=1;endArrow=block;endFill=1;exitX=0.5;exitY=0;exitDx=0;exitDy=0;" edge="1" parent="1" source="38">
                    <mxGeometry relative="1" as="geometry">
                        <mxPoint x="300" y="300" as="targetPoint"/>
                    </mxGeometry>
                </mxCell>
                <mxCell id="38" value="PosgreSQL" style="swimlane;whiteSpace=wrap;html=1;" vertex="1" parent="1">
                    <mxGeometry x="330" y="360" width="400" height="580" as="geometry"/>
                </mxCell>
                <mxCell id="39" value="Instância" style="rounded=0;whiteSpace=wrap;html=1;" vertex="1" parent="38">
                    <mxGeometry x="235" y="60" width="120" height="60" as="geometry"/>
                </mxCell>
                <mxCell id="40" value="Base de dados" style="rounded=0;whiteSpace=wrap;html=1;" vertex="1" parent="38">
                    <mxGeometry x="235" y="130" width="120" height="60" as="geometry"/>
                </mxCell>
                <mxCell id="41" value="Tabelas" style="rounded=0;whiteSpace=wrap;html=1;" vertex="1" parent="38">
                    <mxGeometry x="235" y="200" width="120" height="60" as="geometry"/>
                </mxCell>
                <mxCell id="42" value="Colunas" style="rounded=0;whiteSpace=wrap;html=1;" vertex="1" parent="38">
                    <mxGeometry x="235" y="270" width="120" height="60" as="geometry"/>
                </mxCell>
                <mxCell id="43" value="Index" style="rounded=0;whiteSpace=wrap;html=1;" vertex="1" parent="38">
                    <mxGeometry x="235" y="340" width="120" height="60" as="geometry"/>
                </mxCell>
                <mxCell id="44" value="Processures" style="rounded=0;whiteSpace=wrap;html=1;" vertex="1" parent="38">
                    <mxGeometry x="235" y="410" width="120" height="60" as="geometry"/>
                </mxCell>
                <mxCell id="45" value="Function" style="rounded=0;whiteSpace=wrap;html=1;" vertex="1" parent="38">
                    <mxGeometry x="235" y="480" width="120" height="60" as="geometry"/>
                </mxCell>
                <mxCell id="46" value="Usuário / Role" style="rounded=0;whiteSpace=wrap;html=1;" vertex="1" parent="38">
                    <mxGeometry x="15" y="275" width="120" height="60" as="geometry"/>
                </mxCell>
                <mxCell id="47" value="Nível de acesso" style="swimlane;horizontal=0;whiteSpace=wrap;html=1;" vertex="1" parent="38">
                    <mxGeometry x="185" y="40" width="200" height="520" as="geometry"/>
                </mxCell>
                <mxCell id="48" style="edgeStyle=none;html=1;startArrow=block;startFill=1;endArrow=block;endFill=1;entryX=-0.02;entryY=0.515;entryDx=0;entryDy=0;entryPerimeter=0;" edge="1" parent="38" source="46" target="47">
                    <mxGeometry relative="1" as="geometry">
                        <mxPoint x="145" y="410" as="targetPoint"/>
                    </mxGeometry>
                </mxCell>
                <mxCell id="63" style="edgeStyle=none;html=1;entryX=1;entryY=1;entryDx=0;entryDy=0;startArrow=oval;startFill=1;endArrow=block;endFill=1;exitX=0.5;exitY=0;exitDx=0;exitDy=0;" edge="1" parent="1" source="49" target="3">
                    <mxGeometry relative="1" as="geometry"/>
                </mxCell>
                <mxCell id="49" value="MySQL" style="swimlane;whiteSpace=wrap;html=1;" vertex="1" parent="1">
                    <mxGeometry x="760" y="360" width="400" height="580" as="geometry"/>
                </mxCell>
                <mxCell id="50" value="Instância" style="rounded=0;whiteSpace=wrap;html=1;" vertex="1" parent="49">
                    <mxGeometry x="235" y="60" width="120" height="60" as="geometry"/>
                </mxCell>
                <mxCell id="51" value="Base de dados" style="rounded=0;whiteSpace=wrap;html=1;" vertex="1" parent="49">
                    <mxGeometry x="235" y="130" width="120" height="60" as="geometry"/>
                </mxCell>
                <mxCell id="52" value="Tabelas" style="rounded=0;whiteSpace=wrap;html=1;" vertex="1" parent="49">
                    <mxGeometry x="235" y="200" width="120" height="60" as="geometry"/>
                </mxCell>
                <mxCell id="53" value="Colunas" style="rounded=0;whiteSpace=wrap;html=1;" vertex="1" parent="49">
                    <mxGeometry x="235" y="270" width="120" height="60" as="geometry"/>
                </mxCell>
                <mxCell id="54" value="Index" style="rounded=0;whiteSpace=wrap;html=1;" vertex="1" parent="49">
                    <mxGeometry x="235" y="340" width="120" height="60" as="geometry"/>
                </mxCell>
                <mxCell id="55" value="Processures" style="rounded=0;whiteSpace=wrap;html=1;" vertex="1" parent="49">
                    <mxGeometry x="235" y="410" width="120" height="60" as="geometry"/>
                </mxCell>
                <mxCell id="56" value="Function" style="rounded=0;whiteSpace=wrap;html=1;" vertex="1" parent="49">
                    <mxGeometry x="235" y="480" width="120" height="60" as="geometry"/>
                </mxCell>
                <mxCell id="57" value="Usuário / Role" style="rounded=0;whiteSpace=wrap;html=1;" vertex="1" parent="49">
                    <mxGeometry x="15" y="275" width="120" height="60" as="geometry"/>
                </mxCell>
                <mxCell id="58" value="Nível de acesso" style="swimlane;horizontal=0;whiteSpace=wrap;html=1;" vertex="1" parent="49">
                    <mxGeometry x="185" y="40" width="200" height="520" as="geometry"/>
                </mxCell>
                <mxCell id="59" style="edgeStyle=none;html=1;startArrow=block;startFill=1;endArrow=block;endFill=1;entryX=-0.02;entryY=0.515;entryDx=0;entryDy=0;entryPerimeter=0;" edge="1" parent="49" source="57" target="58">
                    <mxGeometry relative="1" as="geometry">
                        <mxPoint x="145" y="410" as="targetPoint"/>
                    </mxGeometry>
                </mxCell>
            </root>
        </mxGraphModel>
    </diagram>
</mxfile>